<svg width="41" height="44" viewBox="0 0 41 44" fill="none" xmlns="http://www.w3.org/2000/svg">
<path d="M8.25854 43V35.7734H10.446C11.1394 35.7734 11.67 35.9264 12.0378 36.2324C12.4089 36.5384 12.5945 36.9827 12.5945 37.5654C12.5945 38.0244 12.4659 38.4329 12.2087 38.791C11.9548 39.1491 11.5968 39.4242 11.1345 39.6162L13.5466 43H12.2869L10.2312 39.9434H9.27417V43H8.25854ZM9.27417 39.1768H9.6062C10.8953 39.1768 11.5398 38.6706 11.5398 37.6582C11.5398 36.9128 10.9994 36.54 9.9187 36.54H9.27417V39.1768Z" fill="#2B3EA4"/>
<path d="M14.279 43V35.7734H18.3171V36.54H15.3044V38.8594H17.8288V39.6162H15.3044V42.2334H18.527V43H14.279Z" fill="#2B3EA4"/>
<path d="M18.9469 42.8633V41.8477C19.7607 42.2253 20.4296 42.4141 20.9537 42.4141C21.3574 42.4141 21.6812 42.3083 21.9254 42.0967C22.1728 41.8851 22.2965 41.6068 22.2965 41.2617C22.2965 40.9785 22.2151 40.7376 22.0523 40.5391C21.8928 40.3405 21.5966 40.1191 21.1637 39.875L20.6656 39.5869C20.0504 39.2354 19.6158 38.9049 19.3619 38.5957C19.1113 38.2832 18.9859 37.9202 18.9859 37.5068C18.9859 36.9502 19.1878 36.4928 19.5914 36.1348C19.995 35.7734 20.5094 35.5928 21.1344 35.5928C21.691 35.5928 22.2786 35.6855 22.8971 35.8711V36.8086C22.1353 36.5091 21.5673 36.3594 21.193 36.3594C20.8381 36.3594 20.5452 36.4538 20.3141 36.6426C20.0829 36.8314 19.9674 37.069 19.9674 37.3555C19.9674 37.5964 20.052 37.8096 20.2213 37.9951C20.3906 38.1807 20.6998 38.402 21.149 38.6592L21.6666 38.9521C22.2916 39.307 22.7278 39.6423 22.9752 39.958C23.2226 40.2738 23.3463 40.653 23.3463 41.0957C23.3463 41.724 23.1135 42.2285 22.648 42.6094C22.1858 42.9902 21.5722 43.1807 20.8072 43.1807C20.3222 43.1807 19.7021 43.0749 18.9469 42.8633Z" fill="#2B3EA4"/>
<path d="M24.4741 43V35.7734H28.5122V36.54H25.4995V38.8594H28.0239V39.6162H25.4995V42.2334H28.7222V43H24.4741Z" fill="#2B3EA4"/>
<path d="M31.3051 43V36.54H28.7416V35.7734H34.894V36.54H32.3305V43H31.3051Z" fill="#2B3EA4"/>
<g filter="url(#filter0_d)">
<path d="M8.96043 16.3422L4.9622 16.4612L10.5616 21.737L15.8674 16.1367L11.9591 16.253C12.005 14.0291 12.7533 11.8767 14.0969 10.1039C15.4405 8.33113 17.3106 7.02891 19.4393 6.38363C21.5681 5.73835 23.8464 5.78311 25.9482 6.51149C28.05 7.23987 29.8674 8.61454 31.1404 10.4387C32.4133 12.2629 33.0765 14.443 33.035 16.667C32.9935 18.891 32.2495 21.0449 30.9094 22.8203C29.5692 24.5957 27.7018 25.9017 25.5743 26.5511C23.4468 27.2006 21.1684 27.1603 19.0652 26.4361L18.1477 29.2246C20.8517 30.1361 23.7749 30.1674 26.4977 29.314C29.2205 28.4606 31.6029 26.7664 33.3028 24.4747C35.0028 22.1829 35.9329 19.4115 35.9595 16.5582C35.9862 13.7049 35.1081 10.9165 33.4513 8.59335C31.7945 6.2702 29.4442 4.53176 26.7379 3.6276C24.0315 2.72344 21.1082 2.70006 18.3877 3.56082C15.6672 4.42158 13.2894 6.12221 11.5957 8.41857C9.90195 10.7149 8.97938 13.4889 8.96043 16.3422V16.3422Z" fill="#202C8E"/>
<path d="M22.5 20C24.433 20 26 18.433 26 16.5C26 14.567 24.433 13 22.5 13C20.567 13 19 14.567 19 16.5C19 18.433 20.567 20 22.5 20Z" fill="#202C8E"/>
<mask id="mask0" mask-type="alpha" maskUnits="userSpaceOnUse" x="4" y="0" width="35" height="35">
<rect x="4" width="35" height="34.86" fill="#2B3EA4"/>
</mask>
<g mask="url(#mask0)">
</g>
</g>
<mask id="mask1" mask-type="alpha" maskUnits="userSpaceOnUse" x="4" y="0" width="35" height="44">
<rect x="4" width="35" height="44" fill="#2B3EA4"/>
</mask>
<g mask="url(#mask1)">
</g>
<defs>
<filter id="filter0_d" x="0.575195" y="0.536377" width="39.7806" height="35.91" filterUnits="userSpaceOnUse" color-interpolation-filters="sRGB">
<feFlood flood-opacity="0" result="BackgroundImageFix"/>
<feColorMatrix in="SourceAlpha" type="matrix" values="0 0 0 0 0 0 0 0 0 0 0 0 0 0 0 0 0 0 127 0"/>
<feOffset dy="2"/>
<feGaussianBlur stdDeviation="2"/>
<feColorMatrix type="matrix" values="0 0 0 0 0.12549 0 0 0 0 0.172549 0 0 0 0 0.556863 0 0 0 0.4 0"/>
<feBlend mode="normal" in2="BackgroundImageFix" result="effect1_dropShadow"/>
<feBlend mode="normal" in="SourceGraphic" in2="effect1_dropShadow" result="shape"/>
</filter>
</defs>
</svg>
