<svg width="39" height="45" viewBox="0 0 39 45" fill="none" xmlns="http://www.w3.org/2000/svg">
<path d="M6.9679 44.82V37.6223H7.99329V40.657H11.4308V37.6223H12.4562V44.82H11.4308V41.4206H7.99329V44.82H6.9679Z" fill="#2B3EA4"/>
<path d="M16.9239 44.9999C15.9213 44.9999 15.114 44.6546 14.502 43.9641C13.8933 43.2702 13.5889 42.3543 13.5889 41.2163C13.5889 40.0718 13.8949 39.1575 14.5069 38.4734C15.1221 37.7861 15.9424 37.4424 16.9678 37.4424C17.99 37.4424 18.8086 37.7844 19.4239 38.4685C20.0391 39.1526 20.3467 40.0653 20.3467 41.2066C20.3467 42.3705 20.0391 43.2945 19.4239 43.9786C18.8086 44.6595 17.9753 44.9999 16.9239 44.9999ZM16.9385 44.2364C17.6775 44.2364 18.2487 43.9722 18.6524 43.4437C19.056 42.912 19.2579 42.163 19.2579 41.1968C19.2579 40.2598 19.0544 39.5271 18.6475 38.9986C18.2439 38.4702 17.684 38.2059 16.9678 38.2059C16.2484 38.2059 15.6869 38.4718 15.2833 39.0035C14.8796 39.532 14.6778 40.268 14.6778 41.2114C14.6778 42.1517 14.878 42.8909 15.2784 43.4291C15.6788 43.9673 16.2321 44.2364 16.9385 44.2364Z" fill="#2B3EA4"/>
<path d="M21.4795 44.82V37.6223H22.9004L24.9023 43.1908L26.9629 37.6223H28.2324V44.82H27.2754V38.9646L25.2832 44.3385H24.292L22.3584 38.95V44.82H21.4795Z" fill="#2B3EA4"/>
<path d="M29.7851 44.82V37.6223H33.8231V38.3859H30.8104V40.6959H33.3349V41.4497H30.8104V44.0565H34.0331V44.82H29.7851Z" fill="#2B3EA4"/>
<g filter="url(#filter0_d)">
<path d="M30.7766 15.0195C30.3318 15.0195 29.9711 15.3787 29.9711 15.8218V28.5912H23.5276V21.6209C23.5276 19.4089 21.7208 17.6094 19.5 17.6094C17.2793 17.6094 15.4725 19.409 15.4725 21.6209V28.5913H9.02888V15.8218C9.02888 15.3788 8.6682 15.0196 8.22342 15.0196C7.77865 15.0196 7.41797 15.3788 7.41797 15.8218V29.3936C7.41797 29.8366 7.77865 30.1958 8.22342 30.1958H16.2779C16.7015 30.1958 17.0481 29.8699 17.0802 29.4561C17.0822 29.4373 17.0834 29.4168 17.0834 29.3936V21.6209C17.0834 20.2937 18.1675 19.2139 19.5 19.2139C20.8326 19.2139 21.9167 20.2937 21.9167 21.6209V29.3936C21.9167 29.4167 21.9179 29.4368 21.9199 29.4553C21.9516 29.8695 22.2983 30.1958 22.7222 30.1958H30.7767C31.2215 30.1958 31.5821 29.8366 31.5821 29.3936V15.8218C31.582 15.3787 31.2214 15.0195 30.7766 15.0195Z" fill="#2B3EA4"/>
<path d="M34.6704 13.543L19.9759 2.82707C19.6925 2.62047 19.3076 2.62047 19.0243 2.82707L4.32971 13.543C3.97079 13.8048 3.89281 14.3068 4.15564 14.6643C4.41847 15.0218 4.92253 15.0993 5.28139 14.8377L19.5 4.46863L33.7187 14.8376C33.8621 14.9422 34.0287 14.9926 34.1939 14.9926C34.4419 14.9926 34.6866 14.8789 34.8444 14.6642C35.1073 14.3068 35.0293 13.8048 34.6704 13.543Z" fill="#2B3EA4"/>
<mask id="mask0" mask-type="alpha" maskUnits="userSpaceOnUse" x="2" y="0" width="35" height="35">
<rect x="2" width="35" height="34.86" fill="#2B3EA4"/>
</mask>
<g mask="url(#mask0)">
</g>
</g>
<mask id="mask1" mask-type="alpha" maskUnits="userSpaceOnUse" x="2" y="1" width="35" height="44">
<rect x="2" y="1" width="35" height="44" fill="#2B3EA4"/>
</mask>
<g mask="url(#mask1)">
</g>
<defs>
<filter id="filter0_d" x="0" y="0.672119" width="39.0001" height="35.5237" filterUnits="userSpaceOnUse" color-interpolation-filters="sRGB">
<feFlood flood-opacity="0" result="BackgroundImageFix"/>
<feColorMatrix in="SourceAlpha" type="matrix" values="0 0 0 0 0 0 0 0 0 0 0 0 0 0 0 0 0 0 127 0"/>
<feOffset dy="2"/>
<feGaussianBlur stdDeviation="2"/>
<feColorMatrix type="matrix" values="0 0 0 0 0.12549 0 0 0 0 0.172549 0 0 0 0 0.556863 0 0 0 0.4 0"/>
<feBlend mode="normal" in2="BackgroundImageFix" result="effect1_dropShadow"/>
<feBlend mode="normal" in="SourceGraphic" in2="effect1_dropShadow" result="shape"/>
</filter>
</defs>
</svg>
