<?xml version="1.0" standalone="no"?><!DOCTYPE svg PUBLIC "-//W3C//DTD SVG 1.1//EN" "http://www.w3.org/Graphics/SVG/1.1/DTD/svg11.dtd" ><svg xmlns="http://www.w3.org/2000/svg"><metadata></metadata><defs><font id="Lucida Grande; 5.0d8e1; 2005-1-27" horiz-adv-x="1912"><font-face font-family="Lucida Grande" font-weight="500" font-stretch="normal" units-per-em="2048" panose-1="2 11 6 0 4 5 2 2 2 4" ascent="1980" descent="-432" x-height="4" bbox="16 -395 1727 1579" underline-thickness="100" underline-position="-200" unicode-range="U+0021-0079" /><missing-glyph horiz-adv-x="1536" d="M256 0 l0 1280 l1024 0 l0 -1280 l-1024 0 ZM320 64 l896 0 l0 1152 l-896 0 l0 -1152 Z" /><glyph glyph-name="exclam" unicode="!" d="M225 0 l0 197 l197 0 l0 -197 l-197 0 ZM250 395 l-25 789 l0 296 l197 0 l0 -296 l-24 -789 l-148 0 Z" /><glyph glyph-name="hyphen" unicode="-" d="M148 518 l0 148 l888 0 l0 -148 l-888 0 Z" /><glyph glyph-name="zero" unicode="0" d="M642 -37 q-229 0 -370.5 215.5 q-141.5 215.5 -141.5 562.5 q0 350 142.5 563 q142.5 213 375.5 213 q233 0 375.5 -213 q142.5 -213 142.5 -560 q0 -356 -142.5 -568.5 q-142.5 -212.5 -381.5 -212.5 ZM644 111 q313 0 313 636 q0 622 -309 622 q-308 0 -308 -628 q0 -630 304 -630 Z" /><glyph glyph-name="one" unicode="1" d="M308 0 l0 148 l296 0 l0 1168 l-296 -74 l0 152 l494 123 l0 -1369 l296 0 l0 -148 l-790 0 Z" /><glyph glyph-name="two" unicode="2" d="M170 0 l0 173 q86 201 348 438 l113 101 q218 197 218 391 q0 124 -74.5 195 q-74.5 71 -204.5 71 q-154 0 -363 -119 l0 174 q197 93 391 93 q208 0 334 -112 q126 -112 126 -297 q0 -133 -63.5 -236 q-63.5 -103 -236.5 -250 l-76 -65 q-237 -201 -274 -384 l643 0 l0 -173 l-881 0 Z" /><glyph glyph-name="three" unicode="3" d="M208 11 l0 184 q212 -84 334 -84 q141 0 229.5 82.5 q88.5 82.5 88.5 213.5 q0 312 -437 312 l-78 0 l0 133 l69 1 q410 0 410 289 q0 227 -270 227 q-148 0 -326 -83 l0 172 q175 59 340 59 q454 0 454 -343 q0 -261 -309 -372 q358 -83 358 -392 q0 -209 -138 -328 q-138 -119 -379 -119 q-137 0 -346 48 Z" /><glyph glyph-name="five" unicode="5" d="M249 -6 l0 176 q147 -59 280 -59 q146 0 229.5 86 q83.5 86 83.5 237 q0 333 -459 333 q-52 0 -109 -7 l0 720 l749 0 l0 -172 l-576 0 l0 -390 q285 0 445 -131 q160 -131 160 -363 q0 -216 -145.5 -338.5 q-145.5 -122.5 -403.5 -122.5 q-112 0 -254 31 Z" /><glyph glyph-name="seven" unicode="7" d="M308 0 q29 173 82.5 299 q53.5 126 189.5 346 l404 650 l-762 0 l0 185 l950 0 l0 -185 q-569 -839 -637 -1295 l-227 0 Z" /><glyph glyph-name="eight" unicode="8" d="M471 806 q-217 151 -217 334 q0 168 123 273 q123 105 321 105 q183 0 296.5 -89 q113.5 -89 113.5 -231 q0 -215 -276 -392 q335 -164 335 -423 q0 -186 -140.5 -303 q-140.5 -117 -362.5 -117 q-218 0 -352.5 110.5 q-134.5 110.5 -134.5 290.5 q0 266 294 442 ZM722 868 q207 136 207 303 q0 89 -69 143.5 q-69 54.5 -182 54.5 q-109 0 -177 -53.5 q-68 -53.5 -68 -138.5 q0 -83 61.5 -148.5 q61.5 -65.5 227.5 -160.5 ZM578 726 q-119 -92 -161.5 -160.5 q-42.5 -68.5 -42.5 -170.5 q0 -127 82 -205.5 q82 -78.5 216 -78.5 q129 0 210.5 67 q81.5 67 81.5 174 q0 86 -50.5 145.5 q-50.5 59.5 -195.5 145.5 l-140 83 Z" /><glyph glyph-name="colon" unicode=":" d="M225 0 l0 197 l197 0 l0 -197 l-197 0 ZM225 888 l0 198 l197 0 l0 -198 l-197 0 Z" /><glyph glyph-name="question" unicode="?" d="M250 0 l0 197 l197 0 l0 -197 l-197 0 ZM250 395 l0 54 q0 191 147 359 l63 73 q157 180 157 295 q0 89 -69 141 q-69 52 -186 52 q-153 0 -325 -74 l0 167 q185 56 346 56 q204 0 324 -91.5 q120 -91.5 120 -247.5 q0 -88 -34.5 -151.5 q-34.5 -63.5 -132.5 -156.5 l-62 -58 q-93 -88 -122 -147.5 q-29 -59.5 -29 -160.5 l0 -110 l-197 0 Z" /><glyph glyph-name="I" unicode="i" d="M190 0 l0 1480 l210 0 l0 -1480 l-210 0 Z" /><glyph glyph-name="a" unicode="a" d="M757 138 q-177 -163 -341 -163 q-135 0 -224 84.5 q-89 84.5 -89 213.5 q0 178 149.5 273.5 q149.5 95.5 428.5 95.5 l47 0 l0 131 q0 189 -194 189 q-156 0 -337 -96 l0 163 q199 81 373 81 q182 0 268.5 -82 q86.5 -82 86.5 -255 l0 -492 q0 -169 104 -169 q13 0 38 4 l14 -109 q-67 -32 -148 -32 q-138 0 -176 163 ZM728 245 l0 281 l-66 2 q-162 0 -262 -61.5 q-100 -61.5 -100 -161.5 q0 -71 50 -120 q50 -49 122 -49 q123 0 256 109 Z" /><glyph glyph-name="c" unicode="c" d="M621 -25 q-220 0 -365 163 q-145 163 -145 411 q0 265 143.5 413 q143.5 148 400.5 148 q127 0 284 -35 l0 -165 q-167 49 -272 49 q-151 0 -242.5 -113.5 q-91.5 -113.5 -91.5 -302.5 q0 -183 94 -296 q94 -113 246 -113 q135 0 278 69 l0 -170 q-191 -58 -330 -58 Z" /><glyph glyph-name="d" unicode="d" d="M894 0 l0 204 q-120 -229 -362 -229 q-196 0 -308.5 143 q-112.5 143 -112.5 391 q0 271 127.5 436 q127.5 165 335.5 165 q193 0 320 -148 l0 617 l198 0 l0 -1579 l-198 0 ZM894 827 q-153 135 -290 135 q-283 0 -283 -433 q0 -381 252 -381 q164 0 321 179 l0 500 Z" /><glyph glyph-name="e" unicode="e" d="M993 35 q-198 -60 -339 -60 q-240 0 -391.5 159.5 q-151.5 159.5 -151.5 413.5 q0 247 133.5 405 q133.5 158 341.5 158 q197 0 304.5 -140 q107.5 -140 107.5 -398 l-1 -61 l-685 0 q43 -387 379 -387 q123 0 302 66 l0 -156 ZM321 660 l479 0 q0 303 -226 303 q-227 0 -253 -303 Z" /><glyph glyph-name="i" unicode="i" d="M197 0 l0 1086 l197 0 l0 -1086 l-197 0 ZM197 1283 l0 197 l197 0 l0 -197 l-197 0 Z" /><glyph glyph-name="k" unicode="k" d="M197 0 l0 1579 l197 0 l0 -1020 l460 527 l212 0 l-439 -507 l530 -579 l-252 0 l-511 557 l0 -557 l-197 0 Z" /><glyph glyph-name="l" unicode="l" d="M197 0 l0 1579 l197 0 l0 -1579 l-197 0 Z" /><glyph glyph-name="m" unicode="m" d="M197 0 l0 1086 l197 0 l0 -204 q144 228 370 228 q218 0 297 -228 q140 229 364 229 q144 0 223 -84.5 q79 -84.5 79 -236.5 l0 -790 l-198 0 l0 759 q0 186 -147 186 q-153 0 -321 -217 l0 -728 l-198 0 l0 759 q0 187 -150 187 q-149 0 -319 -218 l0 -728 l-197 0 Z" /><glyph glyph-name="n" unicode="n" d="M197 0 l0 1086 l197 0 l0 -204 q156 228 382 228 q141 0 225 -89.5 q84 -89.5 84 -240.5 l0 -780 l-197 0 l0 716 q0 121 -35.5 172.5 q-35.5 51.5 -117.5 51.5 q-181 0 -341 -237 l0 -703 l-197 0 Z" /><glyph glyph-name="o" unicode="o" d="M622 -25 q-233 0 -372 154.5 q-139 154.5 -139 413.5 q0 262 139.5 414.5 q139.5 152.5 378.5 152.5 q239 0 378.5 -152.5 q139.5 -152.5 139.5 -412.5 q0 -266 -140 -418 q-140 -152 -385 -152 ZM625 123 q313 0 313 422 q0 417 -309 417 q-308 0 -308 -419 q0 -420 304 -420 Z" /><glyph glyph-name="r" unicode="r" d="M197 0 l0 1086 l197 0 l0 -204 q117 228 340 228 q30 0 63 -5 l0 -184 q-51 17 -90 17 q-187 0 -313 -222 l0 -716 l-197 0 Z" /><glyph glyph-name="s" unicode="s" d="M485 -25 q-135 0 -328 63 l0 181 q193 -96 336 -96 q85 0 141 46 q56 46 56 115 q0 101 -157 167 l-115 49 q-255 106 -255 305 q0 142 100.5 223.5 q100.5 81.5 275.5 81.5 q91 0 225 -25 l41 -8 l0 -164 q-165 49 -262 49 q-190 0 -190 -138 q0 -89 144 -150 l95 -40 q161 -68 228 -143.5 q67 -75.5 67 -188.5 q0 -143 -113 -235 q-113 -92 -289 -92 Z" /><glyph glyph-name="t" unicode="t" d="M523 -25 q-150 0 -234 86 q-84 86 -84 239 l0 638 l-136 0 l0 148 l136 0 l0 197 l197 19 l0 -216 l284 0 l0 -148 l-284 0 l0 -602 q0 -213 184 -213 q39 0 95 13 l0 -136 q-91 -25 -158 -25 Z" /><glyph glyph-name="u" unicode="u" d="M876 0 l0 204 q-157 -229 -381 -229 q-142 0 -226 89.5 q-84 89.5 -84 241.5 l0 780 l197 0 l0 -716 q0 -122 35.5 -173.5 q35.5 -51.5 118.5 -51.5 q180 0 340 237 l0 704 l197 0 l0 -1086 l-197 0 Z" /><glyph glyph-name="y" unicode="y" d="M260 -395 l176 395 l-420 1086 l213 0 l311 -818 l332 818 l186 0 l-593 -1481 l-205 0 Z" /></font>
</defs>
</svg>
